<?xml version="1.0" standalone="no"?>
<!DOCTYPE svg PUBLIC "-//W3C//DTD SVG 20010904//EN"
 "http://www.w3.org/TR/2001/REC-SVG-20010904/DTD/svg10.dtd">
<svg version="1.0" xmlns="http://www.w3.org/2000/svg"
 width="767.000000pt" height="767.000000pt" viewBox="0 0 767.000000 767.000000"
 preserveAspectRatio="xMidYMid meet">
<metadata>
Created by potrace 1.14, written by Peter Selinger 2001-2017
</metadata>
<g transform="translate(0.000000,767.000000) scale(0.100000,-0.100000)"
fill="#000000" stroke="none">
<path d="M3599 7655 c-2 -2 -38 -6 -79 -9 -41 -4 -86 -9 -100 -11 -14 -2 -47
-7 -75 -11 -56 -7 -73 -10 -129 -19 -59 -10 -63 -11 -186 -41 -63 -15 -117
-29 -120 -29 -85 -21 -317 -101 -407 -141 -17 -8 -34 -14 -38 -14 -8 0 -287
-140 -345 -174 -25 -14 -52 -29 -60 -33 -8 -4 -26 -14 -40 -24 -14 -9 -64 -42
-112 -74 -138 -89 -305 -220 -432 -337 -22 -21 -44 -38 -48 -38 -4 0 -8 -4 -8
-8 0 -4 -43 -53 -95 -107 -127 -133 -123 -129 -196 -220 -35 -44 -67 -81 -71
-83 -5 -2 -8 -8 -8 -12 0 -5 -23 -40 -51 -77 -28 -37 -54 -75 -57 -83 -3 -8
-9 -17 -13 -20 -4 -3 -15 -19 -25 -37 -11 -17 -40 -66 -65 -110 -70 -118 -166
-311 -218 -438 -5 -11 -14 -33 -21 -50 -45 -109 -114 -331 -145 -465 -21 -92
-45 -212 -49 -240 -3 -19 -9 -67 -15 -107 -33 -221 -36 -691 -6 -875 2 -12 6
-43 9 -68 4 -25 9 -58 11 -75 20 -113 37 -195 51 -248 9 -34 18 -70 20 -79 12
-52 51 -186 60 -208 4 -8 8 -19 10 -25 4 -19 62 -171 88 -233 63 -149 152
-322 242 -467 13 -22 27 -47 31 -55 4 -8 9 -17 12 -20 4 -3 44 -58 90 -123 79
-113 100 -142 146 -193 12 -12 32 -37 45 -55 35 -47 304 -315 370 -369 30 -25
71 -60 91 -78 20 -17 41 -32 45 -32 5 0 17 -8 26 -17 26 -28 46 -43 57 -43 5
0 11 -4 13 -8 2 -5 46 -37 98 -72 52 -34 107 -71 122 -81 15 -11 31 -19 37
-19 5 0 11 -4 13 -8 2 -4 21 -17 43 -28 186 -96 314 -158 390 -188 50 -20 98
-41 107 -46 10 -6 27 -10 37 -10 11 0 23 -4 26 -10 3 -5 16 -10 29 -10 12 0
26 -3 30 -7 4 -4 31 -15 59 -24 28 -9 54 -22 58 -30 62 -132 129 -256 145
-270 8 -6 14 -18 14 -25 0 -8 5 -14 10 -14 6 0 10 -5 10 -11 0 -6 15 -30 32
-53 18 -22 37 -47 43 -55 35 -48 229 -233 276 -263 48 -31 135 -80 149 -83 3
-1 19 -7 35 -14 66 -27 145 -43 241 -47 84 -3 118 0 196 20 119 30 266 104
326 163 7 7 17 13 21 13 4 0 43 37 87 81 111 114 105 107 165 195 30 43 57 81
60 84 3 3 21 34 40 70 19 36 37 67 40 70 4 3 21 38 39 78 l33 72 101 32 c56
17 108 35 116 39 8 4 44 19 80 32 94 36 330 144 340 156 3 3 12 7 20 9 8 2 22
9 30 16 8 7 35 23 60 35 149 75 480 318 632 464 27 26 54 47 59 47 5 0 9 4 9
8 0 5 35 44 78 88 76 79 129 138 187 209 17 21 35 43 40 49 20 21 161 221 201
284 78 125 85 137 91 154 3 10 10 18 16 18 6 0 8 3 4 6 -3 3 8 28 24 55 16 28
29 54 29 59 0 6 5 10 12 10 6 0 9 3 6 6 -3 3 9 36 28 75 19 38 45 97 59 132
14 34 30 71 35 82 23 55 96 269 104 307 3 13 14 57 25 98 20 77 23 88 41 175
23 112 40 222 56 375 17 151 8 637 -12 745 -2 11 -7 40 -10 65 -11 86 -65 345
-90 430 -14 47 -27 93 -29 103 -9 42 -96 275 -132 357 -46 102 -97 207 -106
219 -6 7 -12 20 -13 28 -2 8 -9 22 -16 31 -8 10 -20 31 -28 47 -8 17 -27 49
-42 72 -15 23 -28 46 -28 52 0 6 -4 11 -10 11 -5 0 -10 7 -10 15 0 8 -4 15
-10 15 -5 0 -10 7 -10 15 0 8 -4 15 -10 15 -5 0 -10 5 -10 10 0 12 -41 73 -52
78 -5 2 -8 10 -8 18 0 8 -3 14 -7 14 -5 0 -21 20 -36 45 -16 25 -33 45 -37 45
-5 0 -11 8 -14 18 -4 9 -21 33 -39 53 -17 20 -50 58 -72 85 -53 65 -286 298
-354 354 -29 25 -70 60 -90 77 -20 18 -39 33 -43 33 -4 0 -18 11 -32 25 -14
14 -30 25 -35 25 -6 0 -14 6 -18 13 -4 6 -17 18 -28 25 -57 36 -81 52 -91 60
-17 15 -181 116 -254 156 -136 75 -287 144 -495 226 -56 22 -244 81 -304 96
-168 40 -209 49 -301 64 -41 6 -86 13 -100 16 -14 2 -45 6 -70 9 -25 3 -61 8
-80 11 -41 6 -566 15 -571 9z"/>
</g>
</svg>
